<?xml version="1.0" encoding="UTF-8"?>
<svg id="Layer_1" xmlns="http://www.w3.org/2000/svg" version="1.1" viewBox="0 0 430 165">
  <!-- Generator: Adobe Illustrator 29.4.0, SVG Export Plug-In . SVG Version: 2.1.0 Build 152)  -->
  <defs>
    <style>
      .st0 {
        fill-rule: evenodd;
      }
    </style>
  </defs>
  <path d="M11.72,89.1c4.31-4.34,9.54-6.51,15.67-6.51,5.73,0,10.31,2.07,13.73,6.2v-17.81h8.45v54.9h-8.45v-5.1c-3.42,4.11-8,6.16-13.73,6.16-6.14,0-11.36-2.16-15.67-6.47-4.34-4.34-6.51-9.57-6.51-15.71s2.17-11.34,6.51-15.67ZM41.13,104.77c-.02-3.78-1.37-7.01-4.03-9.7-2.69-2.67-5.92-4-9.7-4s-7.04,1.33-9.7,4c-2.69,2.69-4.03,5.92-4.03,9.7s1.34,7.05,4.03,9.74c2.66,2.66,5.9,3.99,9.7,3.99s7.01-1.33,9.7-3.99c2.66-2.69,4.01-5.92,4.03-9.7v-.04Z"/>
  <path d="M89.63,124.06c-3.65,1.92-7.55,2.89-11.68,2.89-6.14,0-11.36-2.16-15.67-6.47-4.34-4.34-6.51-9.57-6.51-15.71s2.17-11.34,6.51-15.67c4.31-4.34,9.54-6.51,15.67-6.51,3.88,0,7.52.97,10.92,2.89,3.4,1.93,6.1,4.58,8.1,7.95l2.2,3.65-30.62,17.69c2.64,2.49,5.77,3.73,9.4,3.73,2.69,0,5.2-.58,7.53-1.75,2.36-1.19,4.28-2.84,5.78-4.95l7.23,4.34c-2.26,3.35-5.21,5.99-8.86,7.91ZM64.48,107.39l22.48-12.97c-.71-.61-1.46-1.14-2.24-1.6-2.08-1.17-4.34-1.75-6.77-1.75-3.8,0-7.04,1.33-9.7,4-2.69,2.69-4.03,5.92-4.03,9.7,0,.89.09,1.76.27,2.62Z"/>
  <path d="M133.07,94.73c-2.28-2.44-5.19-3.65-8.71-3.65s-6.42,1.22-8.67,3.65c-2.41,2.61-3.62,5.95-3.62,10.01v21.15h-8.44v-42.23h8.44v4.15c2.99-3.47,7.09-5.21,12.29-5.21,5.98,0,10.95,2.15,14.91,6.43,1.39,1.52,2.54,3.19,3.42,4.99l-7.34,4.22c-.56-1.29-1.32-2.46-2.28-3.5Z"/>
  <path d="M154.18,83.66v2.59c2.44-2.43,5.82-3.65,10.16-3.65,5.81,0,10.4,2.1,13.77,6.32.58.76,1.12,1.57,1.6,2.43,2.23-5.83,6.67-8.75,13.31-8.75,5.83,0,10.44,2.1,13.81,6.32,3.2,4,4.79,9.29,4.79,15.86v21.11h-8.44v-21.11c0-4.64-.98-8.18-2.93-10.61-1.67-2.08-4.08-3.12-7.23-3.12s-5.52,1.04-7.19,3.12c-1.95,2.43-2.93,5.97-2.93,10.61v21.11h-8.44v-21.11c0-4.64-.98-8.18-2.93-10.61-1.67-2.08-4.07-3.12-7.19-3.12s-5.55,1.04-7.23,3.12c-1.95,2.43-2.93,5.96-2.93,10.58v21.15h-8.44v-42.23h8.44Z"/>
  <path d="M253.73,88.79v-5.14h8.44v42.23h-8.44v-5.1c-3.42,4.11-8,6.16-13.73,6.16-6.14,0-11.36-2.16-15.67-6.47-4.34-4.34-6.51-9.57-6.51-15.71s2.17-11.34,6.51-15.67c4.31-4.34,9.54-6.51,15.67-6.51,5.73,0,10.31,2.07,13.73,6.2ZM253.73,104.77c-.03-3.78-1.37-7.01-4.03-9.7-2.69-2.67-5.92-4-9.7-4s-7.04,1.33-9.7,4c-2.69,2.69-4.03,5.92-4.03,9.7s1.34,7.05,4.03,9.74c2.66,2.66,5.9,3.99,9.7,3.99s7.01-1.33,9.7-3.99c2.66-2.69,4.01-5.92,4.03-9.7v-.04Z"/>
  <path d="M279.1,70.99v54.9h-8.45v-54.9h8.45Z"/>
  <path d="M297.17,70.91v8.44h-8.45v-8.44h8.45ZM297.17,83.66v42.23h-8.45v-42.23h8.45Z"/>
  <path d="M313.33,113.94c0,1.67.8,2.99,2.4,3.96,1.42.86,3.16,1.29,5.21,1.29s3.83-.43,5.25-1.29c1.6-.97,2.4-2.28,2.4-3.96,0-1.32-.9-2.4-2.7-3.23-1.06-.5-3.04-1.11-5.93-1.82-5.02-1.24-8.47-2.49-10.35-3.73-3.15-2.1-4.72-5.29-4.72-9.55,0-3.04.96-5.65,2.89-7.84,1.75-1.95,4.12-3.39,7.11-4.3,1.95-.59,3.97-.88,6.05-.88s4.12.29,6.05.88c3.02.91,5.4,2.35,7.15,4.3,1.93,2.18,2.89,4.79,2.89,7.84h-8.45c0-1.65-.8-2.96-2.4-3.92-1.42-.89-3.17-1.33-5.25-1.33s-3.79.44-5.21,1.33c-1.6.96-2.4,2.27-2.4,3.92,0,1.32.9,2.41,2.7,3.27,1.06.51,3.03,1.12,5.9,1.83,5.05,1.22,8.51,2.46,10.39,3.73,3.14,2.11,4.72,5.28,4.72,9.51,0,3.07-.96,5.7-2.89,7.88-1.75,1.95-4.13,3.37-7.15,4.26-1.93.59-3.94.88-6.05.88s-4.1-.29-6.05-.88c-2.99-.89-5.37-2.31-7.11-4.26-1.93-2.18-2.89-4.81-2.89-7.88h8.45Z"/>
  <path d="M351.29,113.94c0,1.67.8,2.99,2.4,3.96,1.42.86,3.16,1.29,5.21,1.29s3.83-.43,5.25-1.29c1.6-.97,2.4-2.28,2.4-3.96,0-1.32-.9-2.4-2.7-3.23-1.06-.5-3.04-1.11-5.93-1.82-5.02-1.24-8.47-2.49-10.35-3.73-3.15-2.1-4.72-5.29-4.72-9.55,0-3.04.96-5.65,2.89-7.84,1.75-1.95,4.12-3.39,7.11-4.3,1.95-.59,3.97-.88,6.05-.88s4.12.29,6.05.88c3.02.91,5.4,2.35,7.15,4.3,1.93,2.18,2.89,4.79,2.89,7.84h-8.45c0-1.65-.8-2.96-2.4-3.92-1.42-.89-3.17-1.33-5.25-1.33s-3.79.44-5.21,1.33c-1.6.96-2.4,2.27-2.4,3.92,0,1.32.9,2.41,2.7,3.27,1.06.51,3.03,1.12,5.9,1.83,5.05,1.22,8.51,2.46,10.39,3.73,3.14,2.11,4.72,5.28,4.72,9.51,0,3.07-.96,5.7-2.89,7.88-1.75,1.95-4.13,3.37-7.15,4.26-1.93.59-3.94.88-6.05.88s-4.1-.29-6.05-.88c-2.99-.89-5.37-2.31-7.11-4.26-1.93-2.18-2.89-4.81-2.89-7.88h8.45Z"/>
  <path d="M416.34,88.79v-5.14h8.44v42.23h-8.44v-5.1c-3.42,4.11-8,6.16-13.73,6.16-6.14,0-11.36-2.16-15.67-6.47-4.34-4.34-6.51-9.57-6.51-15.71s2.17-11.34,6.51-15.67c4.31-4.34,9.54-6.51,15.67-6.51,5.73,0,10.31,2.07,13.73,6.2ZM416.34,104.77c-.03-3.78-1.37-7.01-4.03-9.7-2.69-2.67-5.92-4-9.7-4s-7.04,1.33-9.7,4c-2.69,2.69-4.03,5.92-4.03,9.7s1.34,7.05,4.03,9.74c2.66,2.66,5.9,3.99,9.7,3.99s7.01-1.33,9.7-3.99c2.66-2.69,4.01-5.92,4.03-9.7v-.04Z"/>
  <path d="M223.56,4.35v18.41c-2.48-2.99-5.54-4.93-9.18-5.83-1.02,2.15-.57,5.38,1.34,9.65,1.32.66,2.54,1.56,3.67,2.68,2.75,2.78,4.14,6.12,4.17,10.03v.04c-.03,3.91-1.42,7.25-4.17,10.03-2.78,2.75-6.12,4.13-10.03,4.13-2.92,0-5.51-.76-7.78-2.27-.01,0-.02,0-.03,0,1.56,4.35,4.25,8.14,7.77,11h.04c5.93,0,10.66-2.12,14.2-6.37v5.27h8.73V4.35h-8.73ZM193.15,23.07c-1.71,1.71-3.1,3.56-4.16,5.55.07.55.15,1.11.24,1.66.6,3.55,1.7,7,3.26,10.24-.46-4.03.05-7.75,1.53-11.12,2.25-5.1,6.75-9.45,13.44-12.97-5.53.41-10.3,2.63-14.31,6.66Z"/>
  <path d="M239.44,4.35v56.76h8.73V4.35h-8.73Z"/>
  <path class="st0" d="M214.27,14.8c-18.32,7.02-24.44,18.24-18.36,33.64-8.39-10.59-10.77-24.75-6.29-37.5-7.66,10.21-9.18,23.77-3.97,35.43,5.21,11.65,16.34,19.56,29.06,20.65-7.17-3.11-12.6-9.22-14.84-16.7-2.24-7.48-1.07-15.57,3.2-22.11-3.28,6.64-3.83,13.87-1.66,21.69,11.9-6.79,16.27-14.38,13.12-22.76-2.58-5.74-2.66-9.85-.26-12.34Z"/>
  <g>
    <path d="M29.56,159.66s0-.07.03-.22l3.02-15.57c.09-.52.46-.79,1.06-.79h2.44c.6,0,.98.27,1.06.79l3.02,15.57c.03.15.03.17.03.22,0,.47-.34.74-.95.74h-1.12c-.6,0-1.01-.25-1.09-.79l-.43-2.65v.05h-3.71l-.43,2.6c-.09.54-.49.79-1.09.79h-.89c-.6,0-.95-.27-.95-.74ZM36.25,154.66l-1.47-8.56h-.06l-1.44,8.56h2.96Z"/>
    <path d="M55.94,156.39v-9.31c0-2.67,1.61-4.26,4.65-4.26s4.65,1.58,4.65,4.26v.97c0,.54-.37.87-1.01.87h-.98c-.63,0-1.01-.32-1.01-.87v-1.14c0-1.14-.63-1.61-1.58-1.61s-1.58.47-1.58,1.61v9.68c0,1.14.63,1.58,1.58,1.58s1.58-.45,1.58-1.58v-1.78c0-.54.37-.87,1.01-.87h.98c.63,0,1.01.32,1.01.87v1.58c0,2.67-1.61,4.26-4.65,4.26s-4.65-1.58-4.65-4.26Z"/>
    <path d="M83.99,159.54v-13.98h-2.3c-.63,0-1.01-.32-1.01-.87v-.74c0-.54.37-.87,1.01-.87h7.76c.63,0,1.01.32,1.01.87v.74c0,.54-.37.87-1.01.87h-2.3v13.98c0,.54-.37.87-1.01.87h-1.15c-.63,0-1.01-.32-1.01-.87Z"/>
    <path d="M106.35,159.54v-15.59c0-.54.37-.87,1.01-.87h1.15c.63,0,1.01.32,1.01.87v15.59c0,.54-.37.87-1.01.87h-1.15c-.63,0-1.01-.32-1.01-.87Z"/>
    <path d="M128.31,159.61l-2.79-15.57c-.03-.15-.03-.17-.03-.22,0-.47.34-.74.95-.74h1.15c.6,0,.98.3,1.06.82l2.01,12.62h.06l2.01-12.62c.09-.52.46-.82,1.06-.82h.86c.6,0,.95.27.95.74,0,.05,0,.07-.03.22l-2.79,15.57c-.09.54-.49.79-1.09.79h-2.3c-.6,0-1.01-.25-1.09-.79Z"/>
    <path d="M151.58,159.54v-15.59c0-.54.37-.87,1.01-.87h6.61c.63,0,1.01.32,1.01.87v.74c0,.54-.37.87-1.01.87h-4.45v4.58h3.33c.63,0,1,.32,1,.87v.74c0,.54-.37.87-1,.87h-3.33v5.32h4.45c.63,0,1.01.32,1.01.87v.74c0,.54-.37.87-1.01.87h-6.61c-.63,0-1.01-.32-1.01-.87Z"/>
    <path d="M195.15,156.39v-9.31c0-2.67,1.61-4.26,4.66-4.26s4.65,1.58,4.65,4.26v.97c0,.54-.37.87-1.01.87h-.98c-.63,0-1.01-.32-1.01-.87v-1.14c0-1.14-.63-1.61-1.58-1.61s-1.58.47-1.58,1.61v9.68c0,1.14.63,1.58,1.58,1.58s1.58-.45,1.58-1.58v-1.78c0-.54.37-.87,1.01-.87h.98c.63,0,1.01.32,1.01.87v1.58c0,2.67-1.61,4.26-4.65,4.26s-4.66-1.58-4.66-4.26Z"/>
    <path d="M220.56,156.29v-9.11c0-2.77,1.7-4.36,4.8-4.36s4.8,1.58,4.8,4.36v9.11c0,2.77-1.7,4.36-4.8,4.36s-4.8-1.58-4.8-4.36ZM226.99,156.47v-9.45c0-1.24-.63-1.71-1.64-1.71s-1.64.47-1.64,1.71v9.45c0,1.24.63,1.71,1.64,1.71s1.64-.47,1.64-1.71Z"/>
    <path d="M246.1,156.29v-.12c0-.54.37-.87,1.01-.87h.98c.63,0,1.01.32,1.01.87v.32c0,1.24.63,1.68,1.64,1.68s1.64-.45,1.64-1.73c0-1.44-.63-2.35-2.7-3.91-2.64-2-3.51-3.42-3.51-5.4,0-2.72,1.64-4.31,4.71-4.31s4.6,1.63,4.6,4.21c0,.59-.37.87-1.01.87h-.98c-.63,0-1.01-.27-1.01-.87v-.02c0-1.24-.57-1.71-1.58-1.71s-1.58.47-1.58,1.66c0,1.26.66,2.18,2.73,3.74,2.64,2,3.48,3.39,3.48,5.54,0,2.82-1.67,4.41-4.77,4.41s-4.66-1.58-4.66-4.36Z"/>
    <path d="M271.71,159.54v-15.59c0-.54.37-.87,1.01-.87h2.56c.6,0,1,.25,1.09.79l1.87,11.61h.06l1.87-11.61c.09-.54.49-.79,1.09-.79h2.56c.63,0,1.01.32,1.01.87v15.59c0,.54-.37.87-1.01.87h-.98c-.63,0-1.01-.32-1.01-.87v-12.25h-.06l-2.16,12.33c-.09.54-.49.79-1.09.79h-.75c-.6,0-1-.25-1.09-.79l-2.15-12.33h-.06v12.25c0,.54-.37.87-1.01.87h-.75c-.63,0-1.01-.32-1.01-.87Z"/>
    <path d="M301.54,159.54v-15.59c0-.54.37-.87,1.01-.87h6.61c.63,0,1.01.32,1.01.87v.74c0,.54-.37.87-1.01.87h-4.45v4.58h3.33c.63,0,1,.32,1,.87v.74c0,.54-.37.87-1,.87h-3.33v5.32h4.45c.63,0,1.01.32,1.01.87v.74c0,.54-.37.87-1.01.87h-6.61c-.63,0-1.01-.32-1.01-.87Z"/>
    <path d="M328.81,159.54v-13.98h-2.3c-.63,0-1.01-.32-1.01-.87v-.74c0-.54.37-.87,1.01-.87h7.76c.63,0,1,.32,1,.87v.74c0,.54-.37.87-1,.87h-2.3v13.98c0,.54-.37.87-1.01.87h-1.15c-.63,0-1-.32-1-.87Z"/>
    <path d="M351.17,159.54v-15.59c0-.54.37-.87,1.01-.87h1.15c.63,0,1.01.32,1.01.87v15.59c0,.54-.37.87-1.01.87h-1.15c-.63,0-1.01-.32-1.01-.87Z"/>
    <path d="M370.86,156.39v-9.31c0-2.67,1.61-4.26,4.66-4.26s4.65,1.58,4.65,4.26v.97c0,.54-.37.87-1.01.87h-.98c-.63,0-1.01-.32-1.01-.87v-1.14c0-1.14-.63-1.61-1.58-1.61s-1.58.47-1.58,1.61v9.68c0,1.14.63,1.58,1.58,1.58s1.58-.45,1.58-1.58v-1.78c0-.54.37-.87,1.01-.87h.98c.63,0,1.01.32,1.01.87v1.58c0,2.67-1.61,4.26-4.65,4.26s-4.66-1.58-4.66-4.26Z"/>
    <path d="M395.95,156.29v-.12c0-.54.37-.87,1.01-.87h.98c.63,0,1.01.32,1.01.87v.32c0,1.24.63,1.68,1.64,1.68s1.64-.45,1.64-1.73c0-1.44-.63-2.35-2.7-3.91-2.64-2-3.51-3.42-3.51-5.4,0-2.72,1.64-4.31,4.71-4.31s4.6,1.63,4.6,4.21c0,.59-.37.87-1.01.87h-.98c-.63,0-1.01-.27-1.01-.87v-.02c0-1.24-.58-1.71-1.58-1.71s-1.58.47-1.58,1.66c0,1.26.66,2.18,2.73,3.74,2.64,2,3.48,3.39,3.48,5.54,0,2.82-1.67,4.41-4.77,4.41s-4.66-1.58-4.66-4.36Z"/>
  </g>
</svg>